<svg version="1.2" xmlns="http://www.w3.org/2000/svg" viewBox="0 0 1528 1422" width="1528" height="1422">
	<title>cartoon poster</title>
	<style>
		tspan { white-space:pre } 
		.s0 { fill: #e9ff76 } 
		.s1 { fill: #0079bd } 
		.s2 { fill: #706a6a;stroke: #000000;paint-order:stroke fill markers;stroke-linejoin: round;stroke-width: 10 } 
		.s3 { fill: #000000 } 
		.s4 { fill: #ffdd1e;stroke: #000000;paint-order:stroke fill markers;stroke-linejoin: round;stroke-width: 10 } 
		.s5 { fill: #ffdd1e;stroke: #000000;paint-order:stroke fill markers;stroke-linejoin: round;stroke-width: 12 } 
		.s6 { fill: #ffdd1e } 
		.s7 { fill: #ffffff } 
		.s8 { fill: #ab7949 } 
		.s9 { fill: #231f20 } 
		.s10 { fill: #231f20;stroke: #000000;paint-order:stroke fill markers;stroke-linejoin: round;stroke-width: 10 } 
		.s11 { fill: #949699 } 
		.s12 { fill: #0079bd;stroke: #000000;paint-order:stroke fill markers;stroke-linejoin: round;stroke-width: 8 } 
		.s13 { fill: #3fa9f5 } 
		.t14 { font-size: 126px;fill: #2a90ff;font-family: "Haettenschweiler" } 
	</style>
	<g id="Layer 1">
		<g id="&lt;Group&gt;">
			<path id="&lt;Path&gt;" class="s0" d="m1528 1084h-1527.1l-0.9-1084h1527.1z"/>
		</g>
		<path id="&lt;Path&gt;" class="s1" d="m1528 1422h-1528v-344h1528z"/>
		<path id="&lt;Path&gt;" class="s2" d="m1094 1072c0 38.7-164.3 70-367 70-202.7 0-367-31.3-367-70 0-38.7 164.3-70 367-70 202.7 0 367 31.3 367 70z"/>
		<path id="&lt;Path&gt;" class="s3" d="m591.4 433.7l75.2-194.6c3-7.7 8-3.9 5.5 4.1l-22.5 72c-2.5 8.1 2.7 11.8 5.6 4l31.7-85.9c2.8-7.6 7.9-4.3 5.6 3.7l-28.7 99.4c-2.3 8.2 3 11.4 5.8 3.5l44.6-126.4c2.6-7.5 7.8-5 5.9 2.9l-26.6 110.1c-1.6 6.7 2.1 10.1 5.1 4.6l44.4-81.6c3.2-5.8 23.2-28.6 21-21.5l-52.4 145.2c-2.1 6.7 1.3 11.1 4.5 6l40.2-62.9c3.8-6 7.2 1.2 3.7 8-3.4 6.7-0.1 13.9 3.7 8.1l50.3-96.4c3.6-5.5-3.4 36.5-6.4 43.3l-44 100c-2.7 6-0.4 12.2 3.1 8.6l97-99.9c3.6-3.6 7-48 4.3-42-17 37.7-51.2 162.5-55.1 178.8"/>
		<g id="&lt;Group&gt;">
			<path id="&lt;Path&gt;" class="s4" d="m953.7 968.2c-10.6 4.2-22.1-2.5-25.7-15l-75.7-261.9c-3.6-12.5 2.1-26.2 12.6-30.5 10.5-4.3 22.1 2.4 25.7 14.9l75.6 262c3.6 12.5-2 26.2-12.5 30.5z"/>
		</g>
		<g id="&lt;Group&gt;">
			<path id="&lt;Path&gt;" class="s4" d="m440 567.9c7.4-9.9 20.2-10.9 28.6-2.2l163.7 170.9c8.4 8.7 9.2 24 1.8 33.9-7.3 9.9-20.1 10.9-28.5 2.2l-163.8-170.9c-8.3-8.8-9.1-24-1.8-33.9z"/>
		</g>
		<path id="&lt;Path&gt;" class="s5" d="m719.1 268h45.9c67.8 0 122.9 55 122.9 122.9v478.2c0 67.9-55.1 122.9-122.9 122.9h-45.9c-67.9 0-122.9-55-122.9-122.9v-478.2c0-67.9 55-122.9 122.9-122.9z"/>
		<path id="&lt;Path&gt;" class="s6" d="m801.7 520h-11.8c-24.3 0-44-19.7-44-44v-10c0-24.3 19.7-44 44-44h9.8c24.3 0 44 19.7 44 44v12c0 23.2-18.8 42-42 42z"/>
		<path id="&lt;Path&gt;" class="s7" d="m1120.2 544v-34z"/>
		<g id="&lt;Group&gt;">
			<path id="&lt;Path&gt;" class="s8" d=""/>
		</g>
		<g id="&lt;Group&gt;">
			<path id="&lt;Path&gt;" class="s9" d="m787.7 633.4c-0.9-2.3-0.9-4.5-0.2-6.3-11.8 8.8-26.6 14.1-42.7 14.1-15 0-28.9-4.6-40.2-12.3q-0.5 2.1-1 4.2c-0.4 2.2-1.6 3.6-2.9 4.4q-0.2 0.6-0.3 1.2c12.1 9.6 27.5 15.3 44.4 15.3 17.1 0 32.8-5.9 45-15.8z"/>
		</g>
		<g id="&lt;Group&gt;">
			<path id="&lt;Path&gt;" class="s10" d="m903.3 427q-0.8-1.2-1.5-2.5 0-0.1 0-0.1h-326.1c0.9 15.9 2.2 31.7 2.5 47.6h325c0.4-0.7 0.8-1.3 1.2-2-1.1-14.4-1.8-28.5-1.1-43z"/>
		</g>
		<g id="&lt;Group&gt;">
			<path id="&lt;Path&gt;" class="s9" d="m1524.3 1384h8.7c3.1 0 5.7-2 6.6-4.8-4.9 2.1-10 3.6-15.3 4.8z"/>
		</g>
		<path id="&lt;Path&gt;" class="s11" d="m670.1 552c-41.9 0-75.9-34-75.9-75.9v-28.2c0-41.9 34-75.9 75.9-75.9 41.9 0 75.8 34 75.8 75.9v28.2c0 41.9-33.9 75.9-75.8 75.9z"/>
		<path id="&lt;Path&gt;" class="s11" d="m810 552c-41.9 0-75.9-34-75.9-75.9v-28.2c0-41.9 34-75.9 75.9-75.9 41.9 0 75.9 34 75.9 75.9v28.2c0 41.9-34 75.9-75.9 75.9z"/>
		<g id="&lt;Group&gt;">
			<path id="&lt;Path&gt;" class="s6" d="m730.8 464c0-39.8-27.2-72-60.7-72-33.5 0-60.7 32.2-60.7 72 0 39.8 27.2 72 60.7 72 33.5 0 60.7-32.2 60.7-72z"/>
		</g>
		<g id="&lt;Group&gt;">
			<path id="&lt;Path&gt;" class="s6" d="m870.7 460c0-37.6-27.9-68-62.4-68-34.4 0-62.4 30.4-62.4 68 0 37.6 28 68 62.4 68 34.5 0 62.4-30.4 62.4-68z"/>
		</g>
		<g id="&lt;Group&gt;">
			<path id="&lt;Path&gt;" class="s7" d="m730.8 459c0 29.3-27.2 53-60.7 53-33.5 0-60.7-23.7-60.7-53 0-29.3 27.2-53 60.7-53 33.5 0 60.7 23.7 60.7 53z"/>
		</g>
		<g id="&lt;Group&gt;">
			<path id="&lt;Path&gt;" class="s7" d="m870.7 459c0 29.3-27.2 53-60.7 53-33.5 0-60.7-23.7-60.7-53 0-29.3 27.2-53 60.7-53 33.5 0 60.7 23.7 60.7 53z"/>
		</g>
		<g id="&lt;Group&gt;">
			<path id="&lt;Path&gt;" class="s8" d="m666.7 475c0-13.8 9.4-25 21.1-25 11.6 0 21.1 11.2 21.1 25 0 13.8-9.5 25-21.1 25-11.7 0-21.1-11.2-21.1-25z"/>
		</g>
		<g id="&lt;Group&gt;">
			<path id="&lt;Path&gt;" class="s8" d="m816.8 475c0 13.8-9.5 25-21.1 25-11.7 0-21.1-11.2-21.1-25 0-13.8 9.4-25 21.1-25 11.6 0 21.1 11.2 21.1 25z"/>
		</g>
		<g id="&lt;Group&gt;">
			<path id="&lt;Path&gt;" class="s9" d="m702.1 475c0 7.2-6 13-13.5 13-7.4 0-13.5-5.8-13.5-13 0-7.2 6.1-13 13.5-13 7.5 0 13.5 5.8 13.5 13z"/>
		</g>
		<g id="&lt;Group&gt;">
			<path id="&lt;Path&gt;" class="s9" d="m808.3 477c0 7.2-6 13-13.5 13-7.4 0-13.4-5.8-13.4-13 0-7.2 6-13 13.4-13 7.5 0 13.5 5.8 13.5 13z"/>
		</g>
		<g id="&lt;Group&gt;">
			<path id="&lt;Path&gt;" class="s7" d="m799.9 464c0 5.5 4 10 8.8 10 4.9 0 8.9-4.5 8.9-10 0-5.5-4-10-8.9-10-4.8 0-8.8 4.5-8.8 10z"/>
		</g>
		<g id="&lt;Group&gt;">
			<path id="&lt;Path&gt;" class="s7" d="m661.2 464c0 5.5 4 10 8.9 10 4.9 0 8.8-4.5 8.8-10 0-5.5-3.9-10-8.8-10-4.9 0-8.9 4.5-8.9 10z"/>
		</g>
		<path id="&lt;Path&gt;" class="s6" d="m769.5 815c0 26-20.3 47-45.5 47-25.1 0-45.5-21-45.5-47 0-26 20.4-47 45.5-47 25.2 0 45.5 21 45.5 47z"/>
		<path id="&lt;Path&gt;" class="s6" d="m810 844c0 9.9-9.4 18-21.1 18-11.6 0-21-8.1-21-18 0-9.9 9.4-18 21-18 11.7 0 21.1 8.1 21.1 18z"/>
		<path id="&lt;Path&gt;" class="s6" d="m648.2 720c0-21 1.1-38 2.5-38 1.4 0 2.5 17 2.5 38 0 21-1.1 38-2.5 38-1.4 0-2.5-17-2.5-38z"/>
		<path id="&lt;Path&gt;" class="s6" d="m724 714c0 3.3-15.8 6-35.4 6-19.5 0-35.4-2.7-35.4-6 0-3.3 15.9-6 35.4-6 19.6 0 35.4 2.7 35.4 6z"/>
		<g id="&lt;Group&gt;">
			<path id="&lt;Path&gt;" class="s12" d="m885 844v7h-291.6v-7c-1.7 8.4-2.6 17.1-2.6 26 0 77.3 66.5 140 148.4 140 81.9 0 148.4-62.7 148.4-140 0-8.9-0.9-17.6-2.6-26z"/>
		</g>
		<path id="&lt;Path&gt;" class="s1" d="m843.7 789v-12c0-17.2 4.4-33.3 12-47h-213.5c4.2 11.8 6.6 24.6 6.6 38 0 40.4-21.3 75.6-52.2 92.8 25.1 57.5 78.6 97.2 140.5 97.2h7.3c60.1 0 112.2-37.3 138.2-92-23.3-16.2-38.9-44.7-38.9-77z"/>
		<path id="&lt;Path&gt;" class="s1" d="m590.8 648v47.1l88 93 19.7-26.2z"/>
		<path id="&lt;Path&gt;" class="s1" d="m889.2 660v47.1l-87.9 92.9-19.7-26.2z"/>
		<path id="&lt;Path&gt;" class="s9" d="m439 477.9c-7.3 0.4-11 9.3-8.2 19.8l9.5 35-29.6-30.9c-15 3.2-21 21.6-14.9 27.9l24.7 25.8-25.3-4.6c-9-1.6-15.5 5.4-14.4 15.6 1 10.2 9.2 19.9 18.2 21.5l41.7 7.6c13.9 11.4 30.8 11.8 39.6-0.1 9.7-13 5.7-35.9-8.8-51.1q-0.8-0.8-1.6-1.5l-12.5-46.5c-2.9-10.5-11.1-18.8-18.4-18.5z"/>
		<path id="&lt;Path&gt;" class="s9" d="m927.9 1010.3c6.6 3.9 12.4-2.3 12.9-13.7l1.6-38.2 17.4 46c14.2 5.7 24.8-8 21.2-17.4l-14.6-38.5 21.2 19c7.5 6.8 15.2 4 17.2-6.2 2-10.1-2.5-23.9-10-30.7l-34.9-31.3c-9.1-18.8-24-28.9-35.2-22.9-12.3 6.5-15.3 30.2-6.7 52.9q0.5 1.2 1 2.3l-2.2 50.8c-0.4 11.4 4.5 24 11.1 27.9z"/>
		<path id="&lt;Path&gt;" class="s9" d=""/>
		<path id="&lt;Path&gt;" class="s6" d=""/>
		<path id="&lt;Path&gt;" class="s9" d=""/>
		<path id="&lt;Path&gt;" class="s1" d="m671.2 959.3l55.5 3.9-33.4 98.4-27.1-1.9"/>
		<path id="&lt;Path&gt;" class="s1" d="m749.3 968h60.7l-31.1 94h-29.6z"/>
		<path id="&lt;Path&gt;" class="s9" d="m820.1 770c0 7.7-5.3 14-11.8 14-6.5 0-11.8-6.3-11.8-14 0-7.7 5.3-14 11.8-14 6.5 0 11.8 6.3 11.8 14z"/>
		<path id="&lt;Path&gt;" class="s9" d="m692 764c0 7.7-5.3 14-11.8 14-6.5 0-11.8-6.3-11.8-14 0-7.7 5.3-14 11.8-14 6.5 0 11.8 6.3 11.8 14z"/>
		<path id="&lt;Path&gt;" class="s9" d="m675.5 1045.3c26.5 0 27.8 30.9 1.4 32.1q-4.5 0.2-9.2 0.2c-44.7 0-81.5-14.6-81.5-32.3 0-9.4 10.5-18.3 28.3-24.4 7.3-2.5 15.9-1.5 21.9 2.7l25.5 17.7c3.8 2.6 8.6 4 13.6 4z"/>
		<path id="&lt;Path&gt;" class="s9" d="m761.8 1052.3c-26.3-3.3-30.3 27.2-4.1 31.7q4.4 0.7 9 1.3c44.5 5.6 82.4-4.4 83.9-21.9 0.9-9.4-8.8-19.6-25.9-27.8-7.1-3.4-15.7-3.5-22.1-0.1l-26.9 14.5c-4 2.1-8.9 2.9-13.9 2.3z"/>
		<path id="&lt;Path&gt;" class="s13" d="m660.3 818c3.4 48.2 37.4 86 78.9 86 41.5 0 75.5-37.8 78.9-86z"/>
		<text id="
" style="transform: matrix(2,0,0,2,-1154.596,318.511)" >
		</text>
		<text id="
" style="transform: matrix(2,0,0,2,172.213,375.106)" >
		</text>
		<text id="
" style="transform: matrix(2,0,0,2,-501.83,961.318)" >
		</text>
		<text id="
" style="transform: matrix(2,0,0,2,133.404,546.681)" >
		</text>
		<text id="Minions
" style="transform: matrix(2,0,0,2,80.002,206.092)" >
			<tspan x="0" y="0" class="t14">Minions
</tspan>
		</text>
	</g>
</svg>